<svg xmlns="http://www.w3.org/2000/svg" xmlns:xlink="http://www.w3.org/1999/xlink" xml:space="preserve" style="shape-rendering:geometricPrecision;text-rendering:geometricPrecision;image-rendering:optimizeQuality;" viewBox="0 0 28444 35555" x="0px" y="0px" fill-rule="evenodd" clip-rule="evenodd"><defs><style type="text/css">
   
    .fil0 {fill:black;fill-rule:nonzero}
   
  </style></defs><g><path class="fil0" d="M9960 12772c159,-92 362,-38 454,121 92,159 38,362 -121,454l-464 268c-159,92 -362,38 -454,-121 -92,-159 -38,-362 121,-454l464 -268zm-4011 1201c-159,-92 -213,-296 -121,-454 92,-159 296,-213 454,-121l464 268c159,92 213,296 121,454 -92,159 -296,213 -454,121l-464 -268zm4349 -7358c-94,-157 -43,-362 115,-456 157,-94 362,-43 456,115 259,433 624,922 624,1451 0,315 -173,571 -345,827 -115,171 -231,342 -231,454 0,219 177,513 340,782 68,112 133,221 199,348 83,163 19,363 -145,447 -163,83 -363,19 -447,-145 -41,-80 -108,-191 -178,-306 -209,-345 -436,-722 -436,-1126 0,-315 173,-571 345,-827 115,-171 231,-342 231,-454 0,-322 -322,-765 -528,-1110zm4206 1c-97,-156 -49,-361 107,-458 156,-97 361,-49 458,107 275,441 627,942 627,1456 0,315 -173,571 -345,827 -115,171 -231,342 -231,454 0,298 224,642 457,1001 17,26 8,13 0,0l0 0c10,16 30,47 64,100 99,154 55,359 -99,458 -154,99 -359,55 -458,-99 -107,-165 22,36 -64,-98 -290,-445 -567,-871 -567,-1363 0,-315 173,-571 345,-827 115,-171 231,-342 231,-454 0,-323 -333,-796 -525,-1105zm1073 3386c-9,-13 -18,-27 0,0l0 0zm-3273 -4762c-99,-155 -54,-360 100,-460 155,-99 360,-54 460,100 375,584 830,1237 830,1905 0,389 -223,719 -446,1049 -165,245 -331,490 -331,677 0,481 396,1028 724,1548 98,155 51,361 -104,458 -155,98 -361,51 -458,-104 -376,-596 -829,-1217 -829,-1903 0,-389 223,-719 446,-1049 165,-245 331,-490 331,-677 0,-473 -429,-1088 -723,-1546zm313 8157c91,159 37,362 -122,453 -159,91 -362,37 -453,-122l-104 -180 -204 -46c-100,-23 -179,-88 -223,-173l-96 -166 -204 -46c-179,-40 -292,-218 -251,-397 40,-179 218,-292 397,-251l346 78 0 0c87,20 167,75 215,158l104 180 204 46 0 0c87,20 167,75 215,158l177 307zm1886 891c-91,159 -294,214 -453,122 -159,-91 -214,-294 -122,-453l177 -307c48,-84 127,-139 215,-158l0 0 204 -46 104 -180c48,-84 127,-139 215,-158l0 0 346 -78c179,-40 357,72 397,251 40,179 -72,357 -251,397l-204 46 -96 166c-43,85 -123,150 -223,173l-204 46 -104 180zm-6606 -83c-91,159 -294,214 -453,122 -159,-91 -214,-294 -122,-453l177 -307c48,-84 127,-139 215,-158l0 0 204 -46 104 -180c48,-84 127,-139 215,-158l0 0 346 -78c179,-40 357,72 397,251 40,179 -72,357 -251,397l-204 46 -96 166c-43,85 -123,150 -223,173l-204 46 -104 180zm8706 -1356c180,0 326,146 326,326 0,180 -146,326 -326,326 -180,0 -326,-146 -326,-326 0,-180 146,-326 326,-326zm-6095 1199c180,0 326,146 326,326 0,180 -146,326 -326,326 -180,0 -326,-146 -326,-326 0,-180 146,-326 326,-326zm12544 -582c9,31 14,64 14,97 0,2609 -904,4964 -2691,6623 -908,843 -2041,1503 -3395,1923l0 682c0,509 -415,924 -924,924l-5449 0c-509,0 -924,-415 -924,-924l0 -682c-1355,-420 -2488,-1080 -3395,-1922 -1787,-1659 -2691,-4014 -2691,-6623 0,-708 1168,-1288 3021,-1659 1721,-345 4093,-558 6710,-558 465,0 1949,46 3606,191 982,86 2031,207 2976,375l3380 -3430 2 -2 -1 -1c184,-184 418,-288 647,-308 248,-21 492,55 672,235 179,179 256,423 235,672 -20,229 -124,463 -308,647 -7,7 -15,14 -23,21l-2749 2627c549,198 1218,522 1288,1094zm-3713 -976c-790,-124 -1646,-218 -2463,-289 -1634,-142 -3092,-188 -3549,-188 -2573,0 -4899,208 -6580,545 -1535,308 -2484,667 -2484,1005 0,338 949,698 2484,1005 2425,486 5852,641 8865,489 3,-8 7,-15 11,-22 182,-353 412,-685 698,-962 356,-345 773,-584 1184,-716 374,-121 749,-153 1076,-98l758 -769zm-2931 2520c1008,-71 1936,-175 2751,-307 1,-116 -15,-224 -75,-330 -79,-131 -60,-303 55,-413l4914 -4696c74,-76 118,-153 126,-242 21,-242 -256,-234 -418,-72l-1 -1 -4837 4908 0 0c-84,85 -211,122 -333,85 -241,-74 -555,-57 -883,48 -319,103 -644,290 -923,560 -137,133 -267,295 -377,460zm3413 -424c1498,-293 2569,-664 2569,-1022 0,-84 -90,-179 -248,-283 -219,-143 -537,-273 -923,-389l-1454 1390c32,99 50,201 56,304zm-3508 7706c-1856,444 -4108,444 -5964,0l0 499c0,141 117,257 257,257l5449 0c141,0 257,-117 257,-257l0 -499zm-12011 -7835c181,2066 998,3906 2439,5243 1509,1401 3710,2258 6591,2258 2881,0 5082,-857 6591,-2258 1442,-1338 2259,-3180 2439,-5248 -523,308 -1321,570 -2324,771 -3708,743 -9712,743 -13420,0 -998,-200 -1792,-460 -2315,-765zm8641 308c-178,47 -360,-58 -408,-236 -47,-178 58,-360 236,-408l518 -139c178,-47 360,58 408,236 47,178 -58,360 -236,408l-518 139z"/></g><text x="0" y="28459" fill="#000000" font-size="5px" font-weight="bold" font-family="'Helvetica Neue', Helvetica, Arial-Unicode, Arial, Sans-serif">Created by Zaman Khan</text><text x="0" y="28464" fill="#000000" font-size="5px" font-weight="bold" font-family="'Helvetica Neue', Helvetica, Arial-Unicode, Arial, Sans-serif">from the Noun Project</text></svg>